<svg width="338" height="188" viewBox="0 0 338 188" fill="none" xmlns="http://www.w3.org/2000/svg">
<path d="M126.771 122.209C149.797 119.168 204.189 120.254 237.554 148.928L313.799 32.2798" stroke="black"/>
<path d="M189.983 27.7182L126.771 122.209C110.262 108.959 64.9934 85.195 15.9883 96.1429" stroke="black"/>
<path d="M16.6399 96.7946L18.5949 115.693C37.4932 111.566 80.6333 109.567 102.008 134.591C109.393 132.636 125.989 132.245 133.288 146.321C145.452 141.325 184.509 139.674 243.419 173.039L319.012 60.3014L316.405 50.5265" stroke="black"/>
<path d="M336.769 59.5772L255.963 186C253.878 175.573 87.8336 139.949 5.07232 123.44C0.901675 123.962 0.727898 121.92 1.16234 120.834L16.1506 104.542V95.4187L86.5303 1.57916C147.526 -2.59149 180.587 16.7846 189.493 26.994C222.728 0.927419 317.219 31.5556 313.961 32.2073C311.354 32.7286 315.047 46.3267 317.219 53.0606C326.082 50.9753 333.945 56.5361 336.769 59.5772Z" stroke="black"/>
<g filter="url(#filter0_i_213_17)">
<path d="M105.98 40.7532C103.722 40.1158 101.848 39.0467 100.36 37.546C98.8972 36.0525 97.9535 34.1929 97.5288 31.9672C97.1041 29.7415 97.2865 27.2299 98.0761 24.4325C98.8512 21.6865 100.027 19.4831 101.604 17.8224C103.181 16.1617 105.068 15.0732 107.264 14.557C109.486 14.0481 111.893 14.1594 114.485 14.891C117.359 15.7023 119.533 16.884 121.007 18.436C122.488 19.9624 123.398 21.9924 123.735 24.5261L116.93 25.2238C116.966 23.8207 116.644 22.7046 115.963 21.8752C115.283 21.0459 114.314 20.4538 113.057 20.0989C111.799 19.7439 110.634 19.7477 109.562 20.1101C108.497 20.4468 107.567 21.1403 106.772 22.1904C105.984 23.2149 105.348 24.5869 104.862 26.3064C104.355 28.1029 104.162 29.6694 104.284 31.006C104.431 32.3498 104.883 33.4473 105.641 34.2983C106.431 35.1309 107.519 35.7428 108.905 36.134C109.649 36.3441 110.354 36.4462 111.021 36.4404C111.688 36.4346 112.299 36.3301 112.855 36.1268C113.419 35.8979 113.901 35.563 114.303 35.1222C114.711 34.6557 115.017 34.0631 115.22 33.3446L115.329 32.9596L109.516 31.3189L110.765 26.8919L122.198 30.1189L118.33 43.8235L113.826 42.5522L115.01 36.4441L115.827 37.6722C114.796 39.2653 113.44 40.3374 111.761 40.8885C110.114 41.4213 108.187 41.3762 105.98 40.7532ZM122.629 45.0367L129.8 19.6293L149.587 25.2142L148.142 30.3342L134.976 26.6182L133.52 31.7766L143.991 34.7321L142.633 39.5441L132.162 36.5886L130.695 41.7856L144.361 45.6429L142.916 50.7628L122.629 45.0367ZM174.681 32.297L173.236 37.417L164.959 35.0809L159.233 55.3683L152.612 53.4994L158.338 33.212L150.023 30.8651L151.468 25.7451L174.681 32.297ZM180.093 61.256L187.264 35.8487L207.051 41.4336L205.606 46.5535L192.44 42.8375L190.984 47.996L201.455 50.9514L200.097 55.7634L189.626 52.808L188.159 58.0049L201.825 61.8622L200.38 66.9822L180.093 61.256ZM240.191 50.7873L233.019 76.1946L227.168 74.543L230.46 62.8788L232.859 55.1184L232.782 55.0967L221.009 72.8046L215.658 71.2943L214.881 50.0442L214.804 50.0225L212.791 57.8915L209.498 69.5558L203.609 67.8933L210.78 42.486L220.211 45.1481L220.564 59.2127L220.467 65.0042L220.544 65.0259L223.517 60.0879L231.144 48.2339L240.191 50.7873ZM82.8122 82.6347L89.9835 57.2274L102.341 60.7152C105.464 61.6246 107.604 62.8797 108.759 64.4803C109.922 66.0553 110.192 67.9464 109.569 70.1535C109.163 71.5907 108.388 72.7159 107.244 73.5291C106.108 74.3166 104.627 74.6052 102.802 74.3949L102.791 74.4334C104.669 75.2406 105.927 76.3299 106.565 77.7015C107.236 79.0547 107.355 80.5012 106.92 82.041C106.304 84.2224 105.056 85.6989 103.176 86.4705C101.303 87.2165 98.8266 87.1548 95.7469 86.2856L82.8122 82.6347ZM90.5173 79.7804L95.9452 81.3124C97.1514 81.6529 98.1185 81.6626 98.8464 81.3416C99.5743 81.0206 100.069 80.3981 100.329 79.4742C100.583 78.576 100.48 77.8126 100.02 77.184C99.5672 76.5298 98.7378 76.0325 97.5316 75.692L92.1037 74.16L90.5173 79.7804ZM93.4401 69.425L98.2521 70.7832C100.613 71.4496 102.055 70.8589 102.576 69.0111C103.098 67.1633 102.178 65.9062 99.8168 65.2398L95.0048 63.8816L93.4401 69.425ZM127.033 67.2689C129.599 67.9933 131.658 69.1424 133.208 70.7161C134.792 72.2715 135.809 74.1656 136.26 76.3986C136.71 78.6316 136.548 81.1211 135.773 83.8671C134.997 86.6132 133.834 88.8202 132.283 90.4881C130.731 92.1561 128.87 93.2518 126.7 93.7752C124.562 94.2802 122.21 94.1706 119.644 93.4462C117.078 92.7218 115.003 91.582 113.419 90.0266C111.842 88.4456 110.829 86.5386 110.379 84.3056C109.928 82.0727 110.091 79.5832 110.866 76.8371C111.641 74.0911 112.804 71.8841 114.355 70.2161C115.907 68.5482 117.764 67.4653 119.927 66.9675C122.098 66.4441 124.466 66.5446 127.033 67.2689ZM125.566 72.4659C124.334 72.1182 123.211 72.1199 122.198 72.4712C121.184 72.8224 120.293 73.5267 119.523 74.5841C118.761 75.6159 118.134 77.0043 117.641 78.7495C117.156 80.4689 116.965 81.9805 117.068 83.2842C117.171 84.5879 117.562 85.6544 118.243 86.4837C118.923 87.313 119.879 87.9015 121.111 88.2492C122.343 88.5969 123.453 88.5915 124.441 88.2331C125.454 87.8818 126.346 87.1775 127.115 86.1201C127.885 85.0627 128.512 83.6743 128.997 81.9548C129.49 80.2096 129.681 78.698 129.571 77.42C129.468 76.1163 129.076 75.0498 128.396 74.2205C127.741 73.3985 126.798 72.8136 125.566 72.4659ZM154.646 75.0628C157.212 75.7872 159.271 76.9363 160.822 78.51C162.406 80.0654 163.423 81.9595 163.873 84.1925C164.323 86.4255 164.161 88.915 163.386 91.661C162.611 94.4071 161.448 96.6141 159.896 98.282C158.345 99.95 156.484 101.046 154.313 101.569C152.176 102.074 149.824 101.964 147.257 101.24C144.691 100.516 142.616 99.3759 141.032 97.8205C139.456 96.2395 138.442 94.3325 137.992 92.0995C137.542 89.8666 137.704 87.3771 138.479 84.631C139.254 81.885 140.417 79.678 141.969 78.01C143.52 76.342 145.377 75.2592 147.541 74.7614C149.711 74.238 152.08 74.3384 154.646 75.0628ZM153.179 80.2598C151.947 79.9121 150.825 79.9138 149.811 80.2651C148.798 80.6163 147.906 81.3206 147.137 82.378C146.374 83.4098 145.747 84.7982 145.254 86.5433C144.769 88.2628 144.578 89.7744 144.681 91.0781C144.784 92.3818 145.176 93.4483 145.856 94.2776C146.536 95.1069 147.492 95.6954 148.724 96.0431C149.956 96.3908 151.066 96.3854 152.054 96.027C153.067 95.6757 153.959 94.9714 154.728 93.914C155.498 92.8566 156.125 91.4682 156.611 89.7487C157.103 88.0035 157.294 86.4919 157.184 85.2139C157.081 83.9102 156.689 82.8437 156.009 82.0144C155.354 81.1924 154.411 80.6075 153.179 80.2598ZM193.815 86.5339L177.85 97.4476L177.709 96.3272L169.59 101.974L169.83 96.2645L186.462 84.4586L193.815 86.5339ZM177.377 81.8943L170.206 107.302L163.585 105.433L170.756 80.0255L177.377 81.8943ZM181.668 92.1662L187.106 112.072L179.599 109.953L175.659 94.4602L181.668 92.1662ZM205.929 89.5374C208.29 90.2038 210.263 91.1627 211.85 92.414C213.469 93.6469 214.747 95.1574 215.683 96.9456L211.282 100.317C210.504 98.8505 209.554 97.6539 208.43 96.7271C207.339 95.7819 205.985 95.0811 204.368 94.6248C203.418 94.3567 202.62 94.2421 201.971 94.2808C201.323 94.3195 200.82 94.4823 200.462 94.7691C200.104 95.056 199.86 95.4304 199.729 95.8924C199.577 96.4313 199.691 96.9621 200.07 97.4847C200.481 97.9888 201.216 98.5286 202.273 99.104L206.274 101.272C208.648 102.58 210.266 103.965 211.128 105.427C211.99 106.89 212.156 108.558 211.627 110.431C211.12 112.227 210.227 113.624 208.949 114.621C207.677 115.592 206.142 116.17 204.344 116.355C202.554 116.515 200.619 116.301 198.54 115.715C196.846 115.237 195.28 114.601 193.842 113.807C192.411 112.987 191.177 112.057 190.14 111.016C189.104 109.976 188.289 108.887 187.696 107.749L192.141 104.224C192.572 105.15 193.167 106.038 193.924 106.889C194.714 107.722 195.614 108.46 196.623 109.105C197.658 109.758 198.753 110.247 199.908 110.573C200.806 110.826 201.576 110.947 202.217 110.934C202.884 110.928 203.409 110.785 203.793 110.506C204.176 110.226 204.437 109.842 204.575 109.355C204.727 108.816 204.661 108.312 204.377 107.844C204.101 107.351 203.46 106.824 202.455 106.263L198.052 103.898C196.709 103.158 195.549 102.36 194.571 101.502C193.627 100.626 192.965 99.6356 192.584 98.5306C192.21 97.4 192.223 96.1289 192.621 94.7174C193.07 93.1262 193.905 91.8378 195.125 90.8522C196.353 89.841 197.889 89.2079 199.735 88.9529C201.58 88.6979 203.645 88.8927 205.929 89.5374Z" fill="#0B188A"/>
<path d="M105.98 40.7532C103.722 40.1158 101.848 39.0467 100.36 37.546C98.8972 36.0525 97.9535 34.1929 97.5288 31.9672C97.1041 29.7415 97.2865 27.2299 98.0761 24.4325C98.8512 21.6865 100.027 19.4831 101.604 17.8224C103.181 16.1617 105.068 15.0732 107.264 14.557C109.486 14.0481 111.893 14.1594 114.485 14.891C117.359 15.7023 119.533 16.884 121.007 18.436C122.488 19.9624 123.398 21.9924 123.735 24.5261L116.93 25.2238C116.966 23.8207 116.644 22.7046 115.963 21.8752C115.283 21.0459 114.314 20.4538 113.057 20.0989C111.799 19.7439 110.634 19.7477 109.562 20.1101C108.497 20.4468 107.567 21.1403 106.772 22.1904C105.984 23.2149 105.348 24.5869 104.862 26.3064C104.355 28.1029 104.162 29.6694 104.284 31.006C104.431 32.3498 104.883 33.4473 105.641 34.2983C106.431 35.1309 107.519 35.7428 108.905 36.134C109.649 36.3441 110.354 36.4462 111.021 36.4404C111.688 36.4346 112.299 36.3301 112.855 36.1268C113.419 35.8979 113.901 35.563 114.303 35.1222C114.711 34.6557 115.017 34.0631 115.22 33.3446L115.329 32.9596L109.516 31.3189L110.765 26.8919L122.198 30.1189L118.33 43.8235L113.826 42.5522L115.01 36.4441L115.827 37.6722C114.796 39.2653 113.44 40.3374 111.761 40.8885C110.114 41.4213 108.187 41.3762 105.98 40.7532ZM122.629 45.0367L129.8 19.6293L149.587 25.2142L148.142 30.3342L134.976 26.6182L133.52 31.7766L143.991 34.7321L142.633 39.5441L132.162 36.5886L130.695 41.7856L144.361 45.6429L142.916 50.7628L122.629 45.0367ZM174.681 32.297L173.236 37.417L164.959 35.0809L159.233 55.3683L152.612 53.4994L158.338 33.212L150.023 30.8651L151.468 25.7451L174.681 32.297ZM180.093 61.256L187.264 35.8487L207.051 41.4336L205.606 46.5535L192.44 42.8375L190.984 47.996L201.455 50.9514L200.097 55.7634L189.626 52.808L188.159 58.0049L201.825 61.8622L200.38 66.9822L180.093 61.256ZM240.191 50.7873L233.019 76.1946L227.168 74.543L230.46 62.8788L232.859 55.1184L232.782 55.0967L221.009 72.8046L215.658 71.2943L214.881 50.0442L214.804 50.0225L212.791 57.8915L209.498 69.5558L203.609 67.8933L210.78 42.486L220.211 45.1481L220.564 59.2127L220.467 65.0042L220.544 65.0259L223.517 60.0879L231.144 48.2339L240.191 50.7873ZM82.8122 82.6347L89.9835 57.2274L102.341 60.7152C105.464 61.6246 107.604 62.8797 108.759 64.4803C109.922 66.0553 110.192 67.9464 109.569 70.1535C109.163 71.5907 108.388 72.7159 107.244 73.5291C106.108 74.3166 104.627 74.6052 102.802 74.3949L102.791 74.4334C104.669 75.2406 105.927 76.3299 106.565 77.7015C107.236 79.0547 107.355 80.5012 106.92 82.041C106.304 84.2224 105.056 85.6989 103.176 86.4705C101.303 87.2165 98.8266 87.1548 95.7469 86.2856L82.8122 82.6347ZM90.5173 79.7804L95.9452 81.3124C97.1514 81.6529 98.1185 81.6626 98.8464 81.3416C99.5743 81.0206 100.069 80.3981 100.329 79.4742C100.583 78.576 100.48 77.8126 100.02 77.184C99.5672 76.5298 98.7378 76.0325 97.5316 75.692L92.1037 74.16L90.5173 79.7804ZM93.4401 69.425L98.2521 70.7832C100.613 71.4496 102.055 70.8589 102.576 69.0111C103.098 67.1633 102.178 65.9062 99.8168 65.2398L95.0048 63.8816L93.4401 69.425ZM127.033 67.2689C129.599 67.9933 131.658 69.1424 133.208 70.7161C134.792 72.2715 135.809 74.1656 136.26 76.3986C136.71 78.6316 136.548 81.1211 135.773 83.8671C134.997 86.6132 133.834 88.8202 132.283 90.4881C130.731 92.1561 128.87 93.2518 126.7 93.7752C124.562 94.2802 122.21 94.1706 119.644 93.4462C117.078 92.7218 115.003 91.582 113.419 90.0266C111.842 88.4456 110.829 86.5386 110.379 84.3056C109.928 82.0727 110.091 79.5832 110.866 76.8371C111.641 74.0911 112.804 71.8841 114.355 70.2161C115.907 68.5482 117.764 67.4653 119.927 66.9675C122.098 66.4441 124.466 66.5446 127.033 67.2689ZM125.566 72.4659C124.334 72.1182 123.211 72.1199 122.198 72.4712C121.184 72.8224 120.293 73.5267 119.523 74.5841C118.761 75.6159 118.134 77.0043 117.641 78.7495C117.156 80.4689 116.965 81.9805 117.068 83.2842C117.171 84.5879 117.562 85.6544 118.243 86.4837C118.923 87.313 119.879 87.9015 121.111 88.2492C122.343 88.5969 123.453 88.5915 124.441 88.2331C125.454 87.8818 126.346 87.1775 127.115 86.1201C127.885 85.0627 128.512 83.6743 128.997 81.9548C129.49 80.2096 129.681 78.698 129.571 77.42C129.468 76.1163 129.076 75.0498 128.396 74.2205C127.741 73.3985 126.798 72.8136 125.566 72.4659ZM154.646 75.0628C157.212 75.7872 159.271 76.9363 160.822 78.51C162.406 80.0654 163.423 81.9595 163.873 84.1925C164.323 86.4255 164.161 88.915 163.386 91.661C162.611 94.4071 161.448 96.6141 159.896 98.282C158.345 99.95 156.484 101.046 154.313 101.569C152.176 102.074 149.824 101.964 147.257 101.24C144.691 100.516 142.616 99.3759 141.032 97.8205C139.456 96.2395 138.442 94.3325 137.992 92.0995C137.542 89.8666 137.704 87.3771 138.479 84.631C139.254 81.885 140.417 79.678 141.969 78.01C143.52 76.342 145.377 75.2592 147.541 74.7614C149.711 74.238 152.08 74.3384 154.646 75.0628ZM153.179 80.2598C151.947 79.9121 150.825 79.9138 149.811 80.2651C148.798 80.6163 147.906 81.3206 147.137 82.378C146.374 83.4098 145.747 84.7982 145.254 86.5433C144.769 88.2628 144.578 89.7744 144.681 91.0781C144.784 92.3818 145.176 93.4483 145.856 94.2776C146.536 95.1069 147.492 95.6954 148.724 96.0431C149.956 96.3908 151.066 96.3854 152.054 96.027C153.067 95.6757 153.959 94.9714 154.728 93.914C155.498 92.8566 156.125 91.4682 156.611 89.7487C157.103 88.0035 157.294 86.4919 157.184 85.2139C157.081 83.9102 156.689 82.8437 156.009 82.0144C155.354 81.1924 154.411 80.6075 153.179 80.2598ZM193.815 86.5339L177.85 97.4476L177.709 96.3272L169.59 101.974L169.83 96.2645L186.462 84.4586L193.815 86.5339ZM177.377 81.8943L170.206 107.302L163.585 105.433L170.756 80.0255L177.377 81.8943ZM181.668 92.1662L187.106 112.072L179.599 109.953L175.659 94.4602L181.668 92.1662ZM205.929 89.5374C208.29 90.2038 210.263 91.1627 211.85 92.414C213.469 93.6469 214.747 95.1574 215.683 96.9456L211.282 100.317C210.504 98.8505 209.554 97.6539 208.43 96.7271C207.339 95.7819 205.985 95.0811 204.368 94.6248C203.418 94.3567 202.62 94.2421 201.971 94.2808C201.323 94.3195 200.82 94.4823 200.462 94.7691C200.104 95.056 199.86 95.4304 199.729 95.8924C199.577 96.4313 199.691 96.9621 200.07 97.4847C200.481 97.9888 201.216 98.5286 202.273 99.104L206.274 101.272C208.648 102.58 210.266 103.965 211.128 105.427C211.99 106.89 212.156 108.558 211.627 110.431C211.12 112.227 210.227 113.624 208.949 114.621C207.677 115.592 206.142 116.17 204.344 116.355C202.554 116.515 200.619 116.301 198.54 115.715C196.846 115.237 195.28 114.601 193.842 113.807C192.411 112.987 191.177 112.057 190.14 111.016C189.104 109.976 188.289 108.887 187.696 107.749L192.141 104.224C192.572 105.15 193.167 106.038 193.924 106.889C194.714 107.722 195.614 108.46 196.623 109.105C197.658 109.758 198.753 110.247 199.908 110.573C200.806 110.826 201.576 110.947 202.217 110.934C202.884 110.928 203.409 110.785 203.793 110.506C204.176 110.226 204.437 109.842 204.575 109.355C204.727 108.816 204.661 108.312 204.377 107.844C204.101 107.351 203.46 106.824 202.455 106.263L198.052 103.898C196.709 103.158 195.549 102.36 194.571 101.502C193.627 100.626 192.965 99.6356 192.584 98.5306C192.21 97.4 192.223 96.1289 192.621 94.7174C193.07 93.1262 193.905 91.8378 195.125 90.8522C196.353 89.841 197.889 89.2079 199.735 88.9529C201.58 88.6979 203.645 88.8927 205.929 89.5374Z" fill="white" fill-opacity="0.15"/>
</g>
<path d="M100.36 37.546L99.6454 38.2457L99.6498 38.2501L100.36 37.546ZM101.604 17.8224L100.879 17.1338L101.604 17.8224ZM107.264 14.557L107.041 13.5823L107.035 13.5836L107.264 14.557ZM121.007 18.436L120.282 19.1247L120.29 19.1324L121.007 18.436ZM123.735 24.5261L123.837 25.5209L124.863 25.4158L124.727 24.394L123.735 24.5261ZM116.93 25.2238L115.93 25.1983L115.901 26.3345L117.032 26.2186L116.93 25.2238ZM115.963 21.8752L116.736 21.241L115.963 21.8752ZM109.562 20.1101L109.864 21.0635L109.873 21.0606L109.882 21.0574L109.562 20.1101ZM106.772 22.1904L107.565 22.8001L107.569 22.7941L106.772 22.1904ZM104.284 31.006L103.288 31.0965L103.289 31.1057L103.29 31.1149L104.284 31.006ZM105.641 34.2983L104.894 34.9631L104.904 34.9751L104.915 34.9867L105.641 34.2983ZM111.021 36.4404L111.012 35.4404L111.021 36.4404ZM112.855 36.1268L113.198 37.0661L113.215 37.06L113.232 37.0533L112.855 36.1268ZM114.303 35.1222L115.042 35.7956L115.048 35.7884L115.055 35.7812L114.303 35.1222ZM115.329 32.9596L116.291 33.2312L116.563 32.2688L115.6 31.9972L115.329 32.9596ZM109.516 31.3189L108.553 31.0473L108.282 32.0097L109.244 32.2813L109.516 31.3189ZM110.765 26.8919L111.037 25.9295L110.074 25.6578L109.803 26.6202L110.765 26.8919ZM122.198 30.1189L123.161 30.3906L123.433 29.4282L122.47 29.1565L122.198 30.1189ZM118.33 43.8235L118.059 44.7859L119.021 45.0575L119.293 44.0951L118.33 43.8235ZM113.826 42.5522L112.845 42.362L112.67 43.2648L113.555 43.5146L113.826 42.5522ZM115.01 36.4441L115.843 35.8902L114.492 33.8604L114.028 36.2538L115.01 36.4441ZM115.827 37.6722L116.667 38.2158L117.023 37.6648L116.66 37.1183L115.827 37.6722ZM111.761 40.8885L112.068 41.84L112.072 41.8387L111.761 40.8885ZM106.252 39.7908C104.14 39.1949 102.424 38.207 101.07 36.8418L99.6498 38.2501C101.273 39.8864 103.303 41.0366 105.708 41.7156L106.252 39.7908ZM101.074 36.8463C99.761 35.5053 98.9021 33.8291 98.5111 31.7798L96.5465 32.1546C97.0049 34.5568 98.0334 36.5997 99.6454 38.2457L101.074 36.8463ZM98.5111 31.7798C98.1225 29.7434 98.2796 27.3931 99.0385 24.7042L97.1137 24.1609C96.2935 27.0668 96.0857 29.7395 96.5465 32.1546L98.5111 31.7798ZM99.0385 24.7042C99.7801 22.0766 100.888 20.0286 102.329 18.511L100.879 17.1338C99.1662 18.9376 97.9222 21.2964 97.1137 24.1609L99.0385 24.7042ZM102.329 18.511C103.775 16.9893 105.49 16.0014 107.493 15.5305L107.035 13.5836C104.647 14.1451 102.588 15.3341 100.879 17.1338L102.329 18.511ZM107.487 15.5318C109.518 15.0665 111.753 15.1591 114.213 15.8534L114.757 13.9286C112.032 13.1598 109.453 13.0297 107.041 13.5823L107.487 15.5318ZM114.213 15.8534C116.98 16.6343 118.972 17.7447 120.282 19.1246L121.732 17.7474C120.095 16.0234 117.739 14.7704 114.757 13.9286L114.213 15.8534ZM120.29 19.1324C121.593 20.4758 122.429 22.2931 122.744 24.6583L124.727 24.394C124.366 21.6918 123.383 19.449 121.725 17.7397L120.29 19.1324ZM123.634 23.5314L116.828 24.229L117.032 26.2186L123.837 25.5209L123.634 23.5314ZM117.93 25.2493C117.97 23.6816 117.611 22.3069 116.736 21.241L115.19 22.5095C115.676 23.1022 115.962 23.9599 115.93 25.1983L117.93 25.2493ZM116.736 21.241C115.9 20.2219 114.739 19.5347 113.328 19.1365L112.785 21.0613C113.889 21.373 114.666 21.87 115.19 22.5095L116.736 21.241ZM113.328 19.1365C111.907 18.7354 110.534 18.7261 109.242 19.1627L109.882 21.0574C110.735 20.7692 111.691 20.7524 112.785 21.0613L113.328 19.1365ZM109.261 19.1566C107.965 19.5664 106.872 20.4019 105.975 21.5868L107.569 22.7941C108.263 21.8786 109.03 21.3272 109.864 21.0635L109.261 19.1566ZM105.979 21.5808C105.09 22.7367 104.407 24.2364 103.9 26.0347L105.825 26.578C106.288 24.9374 106.878 23.6931 107.565 22.8001L105.979 21.5808ZM103.9 26.0347C103.372 27.9062 103.152 29.6007 103.288 31.0965L105.28 30.9155C105.173 29.7381 105.339 28.2995 105.825 26.578L103.9 26.0347ZM103.29 31.1149C103.455 32.6256 103.974 33.9296 104.894 34.9631L106.388 33.6336C105.793 32.9649 105.407 32.074 105.278 30.8971L103.29 31.1149ZM104.915 34.9867C105.857 35.9792 107.118 36.6687 108.633 37.0964L109.176 35.1716C107.92 34.817 107.004 34.2827 106.366 33.6099L104.915 34.9867ZM108.633 37.0964C109.454 37.3282 110.255 37.4471 111.03 37.4404L111.012 35.4404C110.454 35.4453 109.844 35.3599 109.176 35.1716L108.633 37.0964ZM111.03 37.4404C111.796 37.4337 112.522 37.3131 113.198 37.0661L112.512 35.1876C112.076 35.347 111.579 35.4355 111.012 35.4404L111.03 37.4404ZM113.232 37.0533C113.93 36.7693 114.538 36.349 115.042 35.7956L113.563 34.4488C113.264 34.7771 112.907 35.0265 112.479 35.2004L113.232 37.0533ZM115.055 35.7812C115.579 35.1823 115.947 34.4492 116.182 33.6162L114.257 33.0729C114.087 33.6771 113.843 34.129 113.55 34.4632L115.055 35.7812ZM116.182 33.6162L116.291 33.2312L114.366 32.688L114.257 33.0729L116.182 33.6162ZM115.6 31.9972L109.787 30.3565L109.244 32.2813L115.057 33.922L115.6 31.9972ZM110.478 31.5905L111.728 27.1635L109.803 26.6202L108.553 31.0473L110.478 31.5905ZM110.494 27.8543L121.927 31.0813L122.47 29.1565L111.037 25.9295L110.494 27.8543ZM121.236 29.8473L117.368 43.5519L119.293 44.0951L123.161 30.3906L121.236 29.8473ZM118.602 42.8611L114.098 41.5898L113.555 43.5146L118.059 44.7859L118.602 42.8611ZM114.808 42.7425L115.992 36.6343L114.028 36.2538L112.845 42.362L114.808 42.7425ZM114.177 36.998L114.995 38.2262L116.66 37.1183L115.843 35.8902L114.177 36.998ZM114.988 37.1287C114.071 38.545 112.895 39.4639 111.449 39.9384L112.072 41.8387C113.986 41.2108 115.521 39.9855 116.667 38.2158L114.988 37.1287ZM111.453 39.9371C110.046 40.3922 108.329 40.3773 106.252 39.7908L105.708 41.7156C108.045 42.3751 110.182 42.4504 112.068 41.84L111.453 39.9371ZM122.629 45.0367L121.666 44.7651L121.395 45.7275L122.357 45.9991L122.629 45.0367ZM129.8 19.6293L130.072 18.6669L129.109 18.3953L128.838 19.3577L129.8 19.6293ZM149.587 25.2142L150.549 25.4859L150.821 24.5235L149.858 24.2518L149.587 25.2142ZM148.142 30.3342L147.87 31.2966L148.832 31.5682L149.104 30.6058L148.142 30.3342ZM134.976 26.6182L135.248 25.6558L134.285 25.3841L134.014 26.3465L134.976 26.6182ZM133.52 31.7766L132.558 31.505L132.286 32.4674L133.248 32.739L133.52 31.7766ZM143.991 34.7321L144.953 35.0037L145.225 34.0413L144.263 33.7697L143.991 34.7321ZM142.633 39.5441L142.361 40.5065L143.324 40.7781L143.595 39.8157L142.633 39.5441ZM132.162 36.5886L132.434 35.6262L131.471 35.3546L131.2 36.317L132.162 36.5886ZM130.695 41.7856L129.733 41.514L129.461 42.4764L130.423 42.748L130.695 41.7856ZM144.361 45.6429L145.324 45.9145L145.595 44.9521L144.633 44.6805L144.361 45.6429ZM142.916 50.7628L142.644 51.7252L143.607 51.9969L143.878 51.0345L142.916 50.7628ZM123.591 45.3083L130.762 19.901L128.838 19.3577L121.666 44.7651L123.591 45.3083ZM129.528 20.5917L149.315 26.1766L149.858 24.2518L130.072 18.6669L129.528 20.5917ZM148.624 24.9426L147.179 30.0626L149.104 30.6058L150.549 25.4859L148.624 24.9426ZM148.413 29.3718L135.248 25.6558L134.704 27.5806L147.87 31.2966L148.413 29.3718ZM134.014 26.3465L132.558 31.505L134.483 32.0483L135.939 26.8898L134.014 26.3465ZM133.248 32.739L143.719 35.6945L144.263 33.7697L133.792 30.8142L133.248 32.739ZM143.029 34.4604L141.67 39.2724L143.595 39.8157L144.953 35.0037L143.029 34.4604ZM142.904 38.5817L132.434 35.6262L131.89 37.551L142.361 40.5065L142.904 38.5817ZM131.2 36.317L129.733 41.514L131.657 42.0572L133.124 36.8603L131.2 36.317ZM130.423 42.748L144.09 46.6053L144.633 44.6805L130.967 40.8232L130.423 42.748ZM143.399 45.3712L141.954 50.4912L143.878 51.0345L145.324 45.9145L143.399 45.3712ZM143.188 49.8004L122.9 44.0743L122.357 45.9991L142.644 51.7252L143.188 49.8004ZM174.681 32.297L175.643 32.5687L175.915 31.6063L174.952 31.3346L174.681 32.297ZM173.236 37.417L172.964 38.3794L173.926 38.651L174.198 37.6886L173.236 37.417ZM164.959 35.0809L165.231 34.1185L164.268 33.8469L163.997 34.8093L164.959 35.0809ZM159.233 55.3683L158.961 56.3307L159.924 56.6023L160.195 55.6399L159.233 55.3683ZM152.612 53.4994L151.649 53.2278L151.378 54.1902L152.34 54.4618L152.612 53.4994ZM158.338 33.212L159.3 33.4837L159.572 32.5213L158.609 32.2496L158.338 33.212ZM150.023 30.8651L149.06 30.5934L148.789 31.5558L149.751 31.8275L150.023 30.8651ZM151.468 25.7451L151.739 24.7827L150.777 24.5111L150.505 25.4735L151.468 25.7451ZM173.718 32.0254L172.273 37.1454L174.198 37.6886L175.643 32.5687L173.718 32.0254ZM173.507 36.4546L165.231 34.1185L164.687 36.0433L172.964 38.3794L173.507 36.4546ZM163.997 34.8093L158.271 55.0966L160.195 55.6399L165.921 35.3525L163.997 34.8093ZM159.505 54.4059L152.883 52.537L152.34 54.4618L158.961 56.3307L159.505 54.4059ZM153.574 53.771L159.3 33.4837L157.375 32.9404L151.649 53.2278L153.574 53.771ZM158.609 32.2496L150.294 29.9027L149.751 31.8275L158.066 34.1744L158.609 32.2496ZM150.985 31.1367L152.43 26.0167L150.505 25.4735L149.06 30.5934L150.985 31.1367ZM151.196 26.7075L174.409 33.2594L174.952 31.3346L151.739 24.7827L151.196 26.7075ZM180.093 61.256L179.131 60.9844L178.859 61.9468L179.821 62.2184L180.093 61.256ZM187.264 35.8487L187.536 34.8863L186.573 34.6147L186.302 35.5771L187.264 35.8487ZM207.051 41.4336L208.014 41.7052L208.285 40.7428L207.323 40.4712L207.051 41.4336ZM205.606 46.5535L205.334 47.5159L206.297 47.7876L206.568 46.8252L205.606 46.5535ZM192.44 42.8375L192.712 41.8751L191.75 41.6035L191.478 42.5659L192.44 42.8375ZM190.984 47.996L190.022 47.7244L189.75 48.6867L190.713 48.9584L190.984 47.996ZM201.455 50.9514L202.418 51.223L202.689 50.2606L201.727 49.989L201.455 50.9514ZM200.097 55.7634L199.825 56.7258L200.788 56.9974L201.06 56.035L200.097 55.7634ZM189.626 52.808L189.898 51.8456L188.935 51.5739L188.664 52.5363L189.626 52.808ZM188.159 58.0049L187.197 57.7333L186.925 58.6957L187.888 58.9673L188.159 58.0049ZM201.825 61.8622L202.788 62.1338L203.059 61.1714L202.097 60.8998L201.825 61.8622ZM200.38 66.9822L200.109 67.9446L201.071 68.2162L201.343 67.2538L200.38 66.9822ZM181.055 61.5277L188.227 36.1203L186.302 35.5771L179.131 60.9844L181.055 61.5277ZM186.993 36.8111L206.779 42.396L207.323 40.4712L187.536 34.8863L186.993 36.8111ZM206.089 41.1619L204.644 46.2819L206.568 46.8252L208.014 41.7052L206.089 41.1619ZM205.878 45.5911L192.712 41.8751L192.169 43.7999L205.334 47.5159L205.878 45.5911ZM191.478 42.5659L190.022 47.7244L191.947 48.2676L193.403 43.1092L191.478 42.5659ZM190.713 48.9584L201.184 51.9138L201.727 49.989L191.256 47.0336L190.713 48.9584ZM200.493 50.6798L199.135 55.4918L201.06 56.035L202.418 51.223L200.493 50.6798ZM200.369 54.801L189.898 51.8456L189.355 53.7704L199.825 56.7258L200.369 54.801ZM188.664 52.5363L187.197 57.7333L189.122 58.2766L190.589 53.0796L188.664 52.5363ZM187.888 58.9673L201.554 62.8246L202.097 60.8998L188.431 57.0425L187.888 58.9673ZM200.863 61.5906L199.418 66.7105L201.343 67.2538L202.788 62.1338L200.863 61.5906ZM200.652 66.0198L180.365 60.2936L179.821 62.2184L200.109 67.9446L200.652 66.0198ZM240.191 50.7873L241.153 51.0589L241.425 50.0965L240.462 49.8249L240.191 50.7873ZM233.019 76.1946L232.748 77.157L233.71 77.4286L233.982 76.4662L233.019 76.1946ZM227.168 74.543L226.206 74.2714L225.934 75.2338L226.896 75.5054L227.168 74.543ZM230.46 62.8788L229.505 62.5835L229.501 62.5953L229.498 62.6071L230.46 62.8788ZM232.859 55.1184L233.814 55.4137L234.117 54.4344L233.13 54.156L232.859 55.1184ZM232.782 55.0967L233.053 54.1343L232.352 53.9364L231.949 54.543L232.782 55.0967ZM221.009 72.8046L220.737 73.767L221.438 73.9648L221.841 73.3582L221.009 72.8046ZM215.658 71.2943L214.658 71.3308L214.685 72.0588L215.386 72.2567L215.658 71.2943ZM214.881 50.0442L215.88 50.0077L215.854 49.2797L215.153 49.0818L214.881 50.0442ZM214.804 50.0225L215.076 49.0601L214.089 48.7817L213.835 49.7746L214.804 50.0225ZM212.791 57.8915L213.753 58.1631L213.756 58.1513L213.759 58.1393L212.791 57.8915ZM209.498 69.5558L209.227 70.5182L210.189 70.7898L210.461 69.8274L209.498 69.5558ZM203.609 67.8933L202.646 67.6217L202.375 68.5841L203.337 68.8557L203.609 67.8933ZM210.78 42.486L211.051 41.5236L210.089 41.252L209.817 42.2144L210.78 42.486ZM220.211 45.1481L221.211 45.123L221.193 44.3859L220.483 44.1857L220.211 45.1481ZM220.564 59.2127L221.564 59.2294L221.564 59.2085L221.564 59.1876L220.564 59.2127ZM220.467 65.0042L219.467 64.9875L219.455 65.7574L220.196 65.9666L220.467 65.0042ZM220.544 65.0259L220.273 65.9883L221.007 66.1957L221.401 65.5417L220.544 65.0259ZM223.517 60.0879L222.676 59.5468L222.668 59.5593L222.661 59.572L223.517 60.0879ZM231.144 48.2339L231.416 47.2715L230.704 47.0704L230.303 47.6928L231.144 48.2339ZM239.228 50.5156L232.057 75.923L233.982 76.4662L241.153 51.0589L239.228 50.5156ZM233.291 75.2322L227.44 73.5807L226.896 75.5054L232.748 77.157L233.291 75.2322ZM228.131 74.8147L231.423 63.1504L229.498 62.6071L226.206 74.2714L228.131 74.8147ZM231.416 63.174L233.814 55.4137L231.903 54.8232L229.505 62.5835L231.416 63.174ZM233.13 54.156L233.053 54.1343L232.51 56.0591L232.587 56.0808L233.13 54.156ZM231.949 54.543L220.176 72.2509L221.841 73.3582L233.614 55.6503L231.949 54.543ZM221.28 71.8422L215.929 70.3319L215.386 72.2567L220.737 73.767L221.28 71.8422ZM216.657 71.2577L215.88 50.0077L213.882 50.0807L214.658 71.3308L216.657 71.2577ZM215.153 49.0818L215.076 49.0601L214.532 50.9849L214.609 51.0066L215.153 49.0818ZM213.835 49.7746L211.822 57.6436L213.759 58.1393L215.773 50.2703L213.835 49.7746ZM211.828 57.6199L208.536 69.2841L210.461 69.8274L213.753 58.1631L211.828 57.6199ZM209.77 68.5934L203.88 66.9309L203.337 68.8557L209.227 70.5182L209.77 68.5934ZM204.571 68.165L211.742 42.7576L209.817 42.2144L202.646 67.6217L204.571 68.165ZM210.508 43.4484L219.94 46.1105L220.483 44.1857L211.051 41.5236L210.508 43.4484ZM219.212 45.1731L219.564 59.2378L221.564 59.1876L221.211 45.123L219.212 45.1731ZM219.564 59.196L219.467 64.9875L221.467 65.0209L221.564 59.2294L219.564 59.196ZM220.196 65.9666L220.273 65.9883L220.816 64.0635L220.739 64.0418L220.196 65.9666ZM221.401 65.5417L224.374 60.6037L222.661 59.572L219.688 64.5101L221.401 65.5417ZM224.358 60.6289L231.985 48.7749L230.303 47.6928L222.676 59.5468L224.358 60.6289ZM230.873 49.1963L239.919 51.7497L240.462 49.8249L231.416 47.2715L230.873 49.1963ZM82.8122 82.6347L81.8498 82.3631L81.5782 83.3255L82.5406 83.5971L82.8122 82.6347ZM89.9835 57.2274L90.2551 56.265L89.2927 55.9934L89.0211 56.9558L89.9835 57.2274ZM102.341 60.7152L102.62 59.7551L102.612 59.7528L102.341 60.7152ZM108.759 64.4803L107.948 65.0656L107.955 65.0742L108.759 64.4803ZM107.244 73.529L107.814 74.3511L107.824 74.3441L107.244 73.529ZM102.802 74.3949L102.917 73.4015L102.071 73.3041L101.84 74.1233L102.802 74.3949ZM102.791 74.4334L101.829 74.1618L101.591 75.0058L102.396 75.3522L102.791 74.4334ZM106.565 77.7015L105.659 78.1233L105.664 78.1346L105.67 78.1458L106.565 77.7015ZM103.176 86.4705L103.546 87.3996L103.556 87.3957L103.176 86.4705ZM90.5173 79.7804L89.5549 79.5088L89.2833 80.4712L90.2457 80.7428L90.5173 79.7804ZM98.8464 81.3416L99.2499 82.2566L98.8464 81.3416ZM100.02 77.184L99.1975 77.753L99.205 77.7639L99.2128 77.7745L100.02 77.184ZM92.1037 74.16L92.3753 73.1976L91.4129 72.9259L91.1413 73.8883L92.1037 74.16ZM93.4401 69.425L92.4777 69.1533L92.2061 70.1157L93.1685 70.3874L93.4401 69.425ZM95.0048 63.8816L95.2764 62.9192L94.314 62.6475L94.0424 63.6099L95.0048 63.8816ZM83.7746 82.9064L90.9459 57.499L89.0211 56.9558L81.8498 82.3631L83.7746 82.9064ZM89.7118 58.1898L102.069 61.6776L102.612 59.7528L90.2551 56.265L89.7118 58.1898ZM102.061 61.6754C105.098 62.5596 106.984 63.7297 107.948 65.0656L109.57 63.8951C108.224 62.0296 105.831 60.6897 102.62 59.7551L102.061 61.6754ZM107.955 65.0742C108.901 66.3562 109.161 67.9147 108.606 69.8819L110.531 70.4251C111.222 67.9781 110.943 65.7545 109.564 63.8865L107.955 65.0742ZM108.606 69.8819C108.258 71.1146 107.611 72.0418 106.665 72.714L107.824 74.3441C109.166 73.3899 110.068 72.0667 110.531 70.4251L108.606 69.8819ZM106.675 72.7071C105.796 73.3163 104.581 73.5932 102.917 73.4015L102.688 75.3884C104.673 75.6172 106.42 75.3169 107.814 74.351L106.675 72.7071ZM101.84 74.1233L101.829 74.1618L103.754 74.7051L103.765 74.6666L101.84 74.1233ZM102.396 75.3522C104.129 76.0967 105.156 77.0429 105.659 78.1233L107.472 77.2797C106.699 75.617 105.21 74.3844 103.186 73.5147L102.396 75.3522ZM105.67 78.1458C106.223 79.2628 106.329 80.4527 105.958 81.7694L107.882 82.3126C108.38 80.5497 108.249 78.8465 107.461 77.2573L105.67 78.1458ZM105.958 81.7694C105.414 83.6939 104.357 84.905 102.796 85.5454L103.556 87.3957C105.756 86.4929 107.194 84.751 107.882 82.3126L105.958 81.7694ZM102.806 85.5415C101.226 86.1706 99.0023 86.1653 96.0185 85.3232L95.4752 87.248C98.6508 88.1443 101.379 88.2623 103.546 87.3996L102.806 85.5415ZM96.0185 85.3232L83.0839 81.6723L82.5406 83.5971L95.4752 87.248L96.0185 85.3232ZM90.2457 80.7428L95.6736 82.2748L96.2169 80.35L90.7889 78.818L90.2457 80.7428ZM95.6736 82.2748C96.9821 82.6442 98.2171 82.7121 99.2499 82.2566L98.4429 80.4266C98.0199 80.6132 97.3208 80.6616 96.2169 80.35L95.6736 82.2748ZM99.2499 82.2566C100.307 81.7902 100.968 80.8914 101.292 79.7459L99.367 79.2026C99.1688 79.9049 98.8412 80.251 98.4429 80.4266L99.2499 82.2566ZM101.292 79.7459C101.61 78.6172 101.505 77.5205 100.827 76.5936L99.2128 77.7745C99.4544 78.1047 99.5555 78.5348 99.367 79.2026L101.292 79.7459ZM100.842 76.6151C100.2 75.6868 99.1118 75.099 97.8032 74.7296L97.26 76.6544C98.3638 76.966 98.9345 77.3729 99.1975 77.753L100.842 76.6151ZM97.8032 74.7296L92.3753 73.1976L91.832 75.1224L97.26 76.6544L97.8032 74.7296ZM91.1413 73.8883L89.5549 79.5088L91.4797 80.052L93.0661 74.4316L91.1413 73.8883ZM93.1685 70.3874L97.9805 71.7456L98.5238 69.8208L93.7118 68.4626L93.1685 70.3874ZM97.9805 71.7456C99.2602 72.1068 100.467 72.1818 101.483 71.7653C102.554 71.3263 103.216 70.4265 103.538 69.2827L101.614 68.7394C101.415 69.4435 101.095 69.763 100.725 69.9147C100.3 70.0888 99.6051 70.126 98.5238 69.8208L97.9805 71.7456ZM103.538 69.2827C103.861 68.139 103.768 67.0262 103.084 66.0919C102.436 65.2054 101.368 64.6386 100.088 64.2774L99.5451 66.2022C100.626 66.5074 101.199 66.9023 101.47 67.2729C101.707 67.5957 101.812 68.0354 101.614 68.7394L103.538 69.2827ZM100.088 64.2774L95.2764 62.9192L94.7331 64.844L99.5451 66.2022L100.088 64.2774ZM94.0424 63.6099L92.4777 69.1533L94.4025 69.6966L95.9672 64.1532L94.0424 63.6099ZM133.208 70.7161L132.496 71.418L132.502 71.4239L132.508 71.4296L133.208 70.7161ZM136.26 76.3986L137.24 76.2009L136.26 76.3986ZM132.283 90.4881L133.015 91.1692L132.283 90.4881ZM126.7 93.7752L126.93 94.7484L126.934 94.7474L126.7 93.7752ZM113.419 90.0266L112.711 90.7327L112.718 90.7401L113.419 90.0266ZM110.379 84.3056L111.359 84.1079L110.379 84.3056ZM114.355 70.2161L115.088 70.8972L114.355 70.2161ZM119.927 66.9675L120.152 67.9421L120.162 67.9397L119.927 66.9675ZM122.198 72.4712L121.87 71.5263L122.198 72.4712ZM119.523 74.5841L120.328 75.1784L120.332 75.1725L119.523 74.5841ZM117.068 83.2842L116.071 83.363L117.068 83.2842ZM124.441 88.2331L124.113 87.2882L124.106 87.2906L124.099 87.293L124.441 88.2331ZM127.115 86.1201L126.306 85.5317L127.115 86.1201ZM129.571 77.42L128.574 77.4988L128.574 77.506L129.571 77.42ZM128.396 74.2205L127.613 74.8435L127.618 74.8491L127.622 74.8548L128.396 74.2205ZM126.761 68.2313C129.195 68.9183 131.09 69.9911 132.496 71.418L133.921 70.0142C132.225 68.2936 130.003 67.0683 127.304 66.3065L126.761 68.2313ZM132.508 71.4296C133.945 72.841 134.867 74.5539 135.279 76.5963L137.24 76.2009C136.751 73.7774 135.639 71.702 133.909 70.0027L132.508 71.4296ZM135.279 76.5963C135.691 78.6393 135.553 80.9645 134.81 83.5955L136.735 84.1388C137.543 81.2776 137.729 78.6239 137.24 76.2009L135.279 76.5963ZM134.81 83.5955C134.068 86.2265 132.97 88.2811 131.551 89.8071L133.015 91.1692C134.698 89.3593 135.927 86.9999 136.735 84.1388L134.81 83.5955ZM131.551 89.8071C130.13 91.3343 128.441 92.3267 126.466 92.8031L126.934 94.7474C129.3 94.1769 131.333 92.9778 133.015 91.1692L131.551 89.8071ZM126.47 92.802C124.53 93.2604 122.353 93.1718 119.916 92.4838L119.372 94.4086C122.068 95.1693 124.595 95.3001 126.93 94.7484L126.47 92.802ZM119.916 92.4838C117.479 91.7959 115.562 90.7293 114.12 89.3131L112.718 90.7401C114.444 92.4347 116.677 93.6477 119.372 94.4086L119.916 92.4838ZM114.127 89.3205C112.692 87.8815 111.771 86.1525 111.359 84.1079L109.398 84.5034C109.887 86.9247 110.993 89.0097 112.711 90.7327L114.127 89.3205ZM111.359 84.1079C110.947 82.065 111.085 79.7398 111.828 77.1088L109.903 76.5655C109.096 79.4266 108.91 82.0804 109.398 84.5034L111.359 84.1079ZM111.828 77.1088C112.571 74.4778 113.668 72.4232 115.088 70.8972L113.623 69.5351C111.94 71.345 110.711 73.7044 109.903 76.5655L111.828 77.1088ZM115.088 70.8972C116.507 69.3715 118.189 68.3937 120.152 67.9421L119.703 65.993C117.34 66.5368 115.307 67.7248 113.623 69.5351L115.088 70.8972ZM120.162 67.9397C122.136 67.4636 124.328 67.5445 126.761 68.2313L127.304 66.3065C124.605 65.5446 122.06 65.4246 119.693 65.9954L120.162 67.9397ZM125.837 71.5035C124.448 71.1112 123.112 71.096 121.87 71.5263L122.525 73.4161C123.311 73.1439 124.22 73.1252 125.294 73.4283L125.837 71.5035ZM121.87 71.5263C120.625 71.9579 119.578 72.8099 118.715 73.9957L120.332 75.1725C121.008 74.2436 121.744 73.6869 122.525 73.4161L121.87 71.5263ZM118.719 73.9899C117.862 75.1499 117.191 76.6608 116.679 78.4778L118.603 79.0211C119.076 77.3478 119.66 76.0818 120.327 75.1783L118.719 73.9899ZM116.679 78.4778C116.172 80.2723 115.956 81.9069 116.071 83.363L118.064 83.2054C117.973 82.0541 118.139 80.6656 118.603 79.0211L116.679 78.4778ZM116.071 83.363C116.186 84.8251 116.634 86.0989 117.47 87.1179L119.016 85.8495C118.491 85.2099 118.155 84.3507 118.064 83.2054L116.071 83.363ZM117.47 87.1179C118.303 88.1339 119.449 88.8194 120.839 89.2116L121.383 87.2868C120.309 86.9837 119.543 86.4921 119.016 85.8495L117.47 87.1179ZM120.839 89.2116C122.228 89.6036 123.557 89.6174 124.782 89.1731L124.099 87.293C123.348 87.5657 122.458 87.5903 121.383 87.2868L120.839 89.2116ZM124.768 89.1779C126.013 88.7463 127.061 87.8944 127.924 86.7085L126.306 85.5317C125.63 86.4607 124.895 87.0173 124.113 87.2882L124.768 89.1779ZM127.924 86.7085C128.783 85.5275 129.453 84.0209 129.96 82.2264L128.035 81.6832C127.571 83.3276 126.986 84.5979 126.306 85.5317L127.924 86.7085ZM129.96 82.2264C130.473 80.4094 130.691 78.7709 130.567 77.334L128.574 77.506C128.671 78.6252 128.507 80.0099 128.035 81.6832L129.96 82.2264ZM130.568 77.3412C130.452 75.8792 130.005 74.6054 129.169 73.5863L127.622 74.8548C128.147 75.4943 128.483 76.3535 128.574 77.4988L130.568 77.3412ZM129.178 73.5976C128.366 72.5787 127.226 71.8954 125.837 71.5035L125.294 73.4283C126.369 73.7317 127.115 74.2182 127.613 74.8435L129.178 73.5976ZM160.822 78.51L160.11 79.2119L160.115 79.2178L160.121 79.2235L160.822 78.51ZM163.873 84.1925L164.853 83.9948L163.873 84.1925ZM159.896 98.282L160.628 98.9631L159.896 98.282ZM154.313 101.569L154.543 102.542L154.548 102.541L154.313 101.569ZM141.032 97.8205L140.324 98.5266L140.332 98.534L141.032 97.8205ZM137.992 92.0995L138.972 91.9018L137.992 92.0995ZM141.969 78.01L142.701 78.6911L141.969 78.01ZM147.541 74.7614L147.765 75.736L147.775 75.7335L147.541 74.7614ZM149.811 80.2651L149.484 79.3202L149.811 80.2651ZM147.137 82.378L147.941 82.9723L147.945 82.9664L147.137 82.378ZM144.681 91.0781L143.684 91.1569L144.681 91.0781ZM152.054 96.027L151.726 95.0821L151.72 95.0845L151.713 95.0869L152.054 96.027ZM154.728 93.914L153.92 93.3256L154.728 93.914ZM157.184 85.2139L156.187 85.2927L156.188 85.2999L157.184 85.2139ZM156.009 82.0144L155.227 82.6374L155.231 82.643L155.236 82.6487L156.009 82.0144ZM154.374 76.0252C156.808 76.7122 158.703 77.785 160.11 79.2119L161.534 77.8081C159.839 76.0875 157.617 74.8622 154.918 74.1004L154.374 76.0252ZM160.121 79.2235C161.558 80.6349 162.481 82.3478 162.893 84.3902L164.853 83.9948C164.364 81.5713 163.253 79.4959 161.522 77.7966L160.121 79.2235ZM162.893 84.3902C163.305 86.4332 163.166 88.7584 162.424 91.3894L164.348 91.9327C165.156 89.0715 165.342 86.4178 164.853 83.9948L162.893 84.3902ZM162.424 91.3894C161.681 94.0204 160.583 96.0749 159.164 97.601L160.628 98.9631C162.312 97.1532 163.541 94.7938 164.348 91.9327L162.424 91.3894ZM159.164 97.601C157.743 99.1282 156.054 100.121 154.079 100.597L154.548 102.541C156.913 101.971 158.946 100.772 160.628 98.9631L159.164 97.601ZM154.083 100.596C152.143 101.054 149.967 100.966 147.529 100.278L146.986 102.202C149.681 102.963 152.208 103.094 154.543 102.542L154.083 100.596ZM147.529 100.278C145.092 99.5898 143.175 98.5231 141.733 97.107L140.332 98.534C142.057 100.229 144.29 101.442 146.986 102.202L147.529 100.278ZM141.74 97.1144C140.305 95.6754 139.385 93.9464 138.972 91.9018L137.012 92.2972C137.5 94.7186 138.606 96.8036 140.324 98.5266L141.74 97.1144ZM138.972 91.9018C138.56 89.8589 138.699 87.5336 139.441 84.9027L137.517 84.3594C136.709 87.2205 136.523 89.8743 137.012 92.2972L138.972 91.9018ZM139.441 84.9027C140.184 82.2717 141.282 80.2171 142.701 78.6911L141.237 77.3289C139.553 79.1388 138.324 81.4983 137.517 84.3594L139.441 84.9027ZM142.701 78.6911C144.12 77.1654 145.802 76.1876 147.765 75.7359L147.316 73.7869C144.953 74.3307 142.92 75.5187 141.237 77.3289L142.701 78.6911ZM147.775 75.7335C149.749 75.2575 151.941 75.3384 154.374 76.0252L154.918 74.1004C152.218 73.3385 149.673 73.2185 147.306 73.7893L147.775 75.7335ZM153.451 79.2974C152.061 78.9051 150.725 78.8899 149.484 79.3202L150.138 81.2099C150.924 80.9378 151.834 80.919 152.908 81.2222L153.451 79.2974ZM149.484 79.3202C148.238 79.7518 147.191 80.6038 146.328 81.7896L147.945 82.9664C148.621 82.0375 149.357 81.4808 150.138 81.2099L149.484 79.3202ZM146.332 81.7838C145.475 82.9438 144.805 84.4547 144.292 86.2717L146.217 86.815C146.689 85.1417 147.273 83.8757 147.941 82.9722L146.332 81.7838ZM144.292 86.2717C143.785 88.0662 143.569 89.7008 143.684 91.1569L145.678 90.9993C145.587 89.848 145.753 88.4595 146.217 86.815L144.292 86.2717ZM143.684 91.1569C143.8 92.619 144.247 93.8928 145.083 94.9118L146.629 93.6434C146.105 93.0038 145.768 92.1446 145.678 90.9993L143.684 91.1569ZM145.083 94.9118C145.916 95.9278 147.063 96.6132 148.453 97.0055L148.996 95.0807C147.922 94.7776 147.156 94.286 146.629 93.6434L145.083 94.9118ZM148.453 97.0055C149.841 97.3975 151.171 97.4113 152.395 96.967L151.713 95.0869C150.961 95.3596 150.071 95.3842 148.996 95.0807L148.453 97.0055ZM152.381 96.9718C153.627 96.5402 154.674 95.6883 155.537 94.5024L153.92 93.3256C153.244 94.2546 152.508 94.8112 151.726 95.0821L152.381 96.9718ZM155.537 94.5024C156.396 93.3214 157.067 91.8148 157.573 90.0203L155.648 89.477C155.184 91.1215 154.599 92.3918 153.92 93.3256L155.537 94.5024ZM157.573 90.0203C158.086 88.2033 158.304 86.5648 158.18 85.1279L156.188 85.2999C156.284 86.419 156.12 87.8038 155.648 89.477L157.573 90.0203ZM158.181 85.1351C158.065 83.6731 157.618 82.3993 156.782 81.3802L155.236 82.6487C155.76 83.2882 156.097 84.1474 156.187 85.2927L158.181 85.1351ZM156.791 81.3915C155.98 80.3726 154.839 79.6893 153.451 79.2974L152.908 81.2222C153.983 81.5256 154.729 82.0121 155.227 82.6374L156.791 81.3915ZM193.815 86.5339L194.379 87.3595L196.145 86.1525L194.087 85.5715L193.815 86.5339ZM177.85 97.4476L176.858 97.5724L177.062 99.1975L178.414 98.2732L177.85 97.4476ZM177.709 96.3272L178.701 96.2024L178.495 94.5625L177.138 95.5062L177.709 96.3272ZM169.59 101.974L168.591 101.932L168.506 103.946L170.161 102.795L169.59 101.974ZM169.83 96.2645L169.251 95.4491L168.851 95.7328L168.831 96.2226L169.83 96.2645ZM186.462 84.4586L186.734 83.4962L186.273 83.3663L185.883 83.6432L186.462 84.4586ZM177.377 81.8943L178.34 82.166L178.611 81.2036L177.649 80.9319L177.377 81.8943ZM170.206 107.302L169.934 108.264L170.897 108.536L171.168 107.573L170.206 107.302ZM163.585 105.433L162.622 105.161L162.351 106.124L163.313 106.395L163.585 105.433ZM170.756 80.0255L171.027 79.0631L170.065 78.7914L169.793 79.7538L170.756 80.0255ZM181.668 92.1662L182.633 91.9027L182.342 90.8385L181.312 91.232L181.668 92.1662ZM187.106 112.072L186.834 113.034L188.536 113.515L188.07 111.808L187.106 112.072ZM179.599 109.953L178.63 110.199L178.772 110.759L179.327 110.915L179.599 109.953ZM175.659 94.4602L175.303 93.5259L174.471 93.8435L174.69 94.7066L175.659 94.4602ZM193.251 85.7084L177.286 96.6221L178.414 98.2732L194.379 87.3595L193.251 85.7084ZM178.842 97.3228L178.701 96.2024L176.717 96.452L176.858 97.5724L178.842 97.3228ZM177.138 95.5062L169.019 101.153L170.161 102.795L178.28 97.1482L177.138 95.5062ZM170.589 102.016L170.829 96.3065L168.831 96.2226L168.591 101.932L170.589 102.016ZM170.409 97.08L187.041 85.2741L185.883 83.6432L169.251 95.4491L170.409 97.08ZM186.191 85.421L193.543 87.4963L194.087 85.5715L186.734 83.4962L186.191 85.421ZM176.415 81.6227L169.244 107.03L171.168 107.573L178.34 82.166L176.415 81.6227ZM170.478 106.339L163.856 104.47L163.313 106.395L169.934 108.264L170.478 106.339ZM164.547 105.704L171.718 80.2971L169.793 79.7538L162.622 105.161L164.547 105.704ZM170.484 80.9879L177.106 82.8567L177.649 80.9319L171.027 79.0631L170.484 80.9879ZM180.704 92.4297L186.141 112.335L188.07 111.808L182.633 91.9027L180.704 92.4297ZM187.377 111.109L179.871 108.99L179.327 110.915L186.834 113.034L187.377 111.109ZM180.568 109.706L176.628 94.2137L174.69 94.7066L178.63 110.199L180.568 109.706ZM176.016 95.3944L182.025 93.1004L181.312 91.232L175.303 93.5259L176.016 95.3944ZM211.85 92.414L211.231 93.1991L211.237 93.2044L211.244 93.2096L211.85 92.414ZM215.683 96.9456L216.291 97.7395L216.959 97.2276L216.569 96.4818L215.683 96.9456ZM211.282 100.317L210.398 100.785L210.952 101.829L211.89 101.111L211.282 100.317ZM208.43 96.7271L207.775 97.4829L207.784 97.4909L207.793 97.4986L208.43 96.7271ZM201.971 94.2808L201.912 93.2826L201.971 94.2808ZM200.462 94.7691L201.087 95.5496L200.462 94.7691ZM200.07 97.4847L199.26 98.0717L199.277 98.095L199.295 98.1173L200.07 97.4847ZM202.273 99.104L201.794 99.9822L201.796 99.9832L202.273 99.104ZM206.274 101.272L206.756 100.396L206.75 100.393L206.274 101.272ZM208.949 114.621L209.556 115.416L209.563 115.41L208.949 114.621ZM204.344 116.355L204.433 117.352L204.447 117.35L204.344 116.355ZM193.842 113.807L193.345 114.674L193.352 114.678L193.358 114.682L193.842 113.807ZM190.14 111.016L189.432 111.722L190.14 111.016ZM187.696 107.749L187.075 106.966L186.427 107.479L186.809 108.212L187.696 107.749ZM192.141 104.224L193.047 103.802L192.512 102.654L191.519 103.441L192.141 104.224ZM193.924 106.889L193.177 107.554L193.188 107.566L193.199 107.577L193.924 106.889ZM196.623 109.105L196.085 109.948L196.09 109.951L196.623 109.105ZM202.217 110.934L202.208 109.934L202.197 109.934L202.217 110.934ZM204.377 107.844L203.505 108.333L203.513 108.348L203.522 108.363L204.377 107.844ZM202.455 106.263L202.942 105.389L202.935 105.385L202.928 105.382L202.455 106.263ZM198.052 103.898L197.569 104.774L197.578 104.779L198.052 103.898ZM194.571 101.502L193.891 102.235L193.901 102.245L193.912 102.254L194.571 101.502ZM192.584 98.5306L191.634 98.8444L191.639 98.8565L192.584 98.5306ZM195.125 90.8522L195.754 91.6302L195.761 91.624L195.125 90.8522ZM199.735 88.9529L199.598 87.9623L199.735 88.9529ZM205.657 90.4998C207.918 91.138 209.767 92.0446 211.231 93.1991L212.469 91.6288C210.76 90.2808 208.661 89.2696 206.2 88.575L205.657 90.4998ZM211.244 93.2096C212.748 94.3545 213.93 95.7521 214.797 97.4094L216.569 96.4818C215.564 94.5627 214.191 92.9392 212.456 91.6184L211.244 93.2096ZM215.075 96.1517L210.674 99.523L211.89 101.111L216.291 97.7395L215.075 96.1517ZM212.165 99.8483C211.335 98.2818 210.304 96.977 209.066 95.9556L207.793 97.4986C208.803 98.3308 209.674 99.4191 210.398 100.785L212.165 99.8483ZM209.085 95.9713C207.866 94.9154 206.375 94.1521 204.64 93.6624L204.096 95.5872C205.595 96.0101 206.812 96.6484 207.775 97.4829L209.085 95.9713ZM204.64 93.6624C203.632 93.3781 202.714 93.2347 201.912 93.2826L202.031 95.279C202.525 95.2495 203.204 95.3354 204.096 95.5872L204.64 93.6624ZM201.912 93.2826C201.14 93.3287 200.411 93.5288 199.837 93.9887L201.087 95.5496C201.229 95.4358 201.506 95.3103 202.031 95.279L201.912 93.2826ZM199.837 93.9887C199.308 94.4122 198.951 94.9681 198.767 95.6207L200.692 96.164C200.768 95.8928 200.9 95.6998 201.087 95.5496L199.837 93.9887ZM198.767 95.6207C198.518 96.5015 198.732 97.344 199.26 98.0717L200.879 96.8976C200.649 96.5801 200.636 96.3611 200.692 96.164L198.767 95.6207ZM199.295 98.1173C199.832 98.774 200.704 99.3885 201.794 99.9822L202.751 98.2257C201.728 97.6687 201.131 97.2037 200.844 96.852L199.295 98.1173ZM201.796 99.9832L205.797 102.152L206.75 100.393L202.749 98.2248L201.796 99.9832ZM205.792 102.148C208.093 103.416 209.535 104.693 210.266 105.935L211.989 104.919C210.997 103.236 209.203 101.744 206.756 100.396L205.792 102.148ZM210.266 105.935C210.969 107.127 211.132 108.506 210.665 110.159L212.59 110.703C213.181 108.609 213.011 106.652 211.989 104.919L210.266 105.935ZM210.665 110.159C210.207 111.783 209.42 112.986 208.334 113.832L209.563 115.41C211.035 114.263 212.034 112.672 212.59 110.703L210.665 110.159ZM208.342 113.826C207.235 114.671 205.881 115.192 204.242 115.361L204.447 117.35C206.404 117.148 208.119 116.513 209.555 115.416L208.342 113.826ZM204.256 115.359C202.608 115.506 200.796 115.312 198.812 114.752L198.268 116.677C200.441 117.29 202.499 117.524 204.433 117.351L204.256 115.359ZM198.812 114.752C197.186 114.293 195.692 113.686 194.325 112.931L193.358 114.682C194.868 115.516 196.506 116.18 198.268 116.677L198.812 114.752ZM194.339 112.939C192.976 112.158 191.815 111.281 190.849 110.311L189.432 111.722C190.538 112.833 191.845 113.816 193.345 114.674L194.339 112.939ZM190.849 110.311C189.874 109.331 189.123 108.323 188.583 107.287L186.809 108.212C187.456 109.451 188.334 110.62 189.432 111.722L190.849 110.311ZM188.317 108.533L192.762 105.008L191.519 103.441L187.075 106.966L188.317 108.533ZM191.234 104.647C191.711 105.67 192.362 106.638 193.177 107.554L194.671 106.224C193.971 105.437 193.433 104.629 193.047 103.802L191.234 104.647ZM193.199 107.577C194.047 108.471 195.01 109.261 196.085 109.948L197.162 108.263C196.218 107.66 195.381 106.972 194.649 106.2L193.199 107.577ZM196.09 109.951C197.205 110.654 198.388 111.183 199.637 111.535L200.18 109.611C199.119 109.311 198.112 108.862 197.157 108.259L196.09 109.951ZM199.637 111.535C200.591 111.805 201.464 111.949 202.237 111.933L202.197 109.934C201.688 109.944 201.022 109.848 200.18 109.611L199.637 111.535ZM202.226 111.934C203.019 111.927 203.773 111.757 204.381 111.314L203.204 109.697C203.044 109.813 202.748 109.929 202.208 109.934L202.226 111.934ZM204.381 111.314C204.959 110.893 205.343 110.314 205.537 109.626L203.612 109.083C203.531 109.371 203.394 109.559 203.204 109.697L204.381 111.314ZM205.537 109.626C205.762 108.828 205.664 108.037 205.233 107.326L203.522 108.363C203.658 108.587 203.691 108.804 203.612 109.083L205.537 109.626ZM205.25 107.356C204.829 106.604 203.973 105.964 202.942 105.389L201.968 107.136C202.948 107.683 203.373 108.097 203.505 108.333L205.25 107.356ZM202.928 105.382L198.525 103.017L197.578 104.779L201.982 107.144L202.928 105.382ZM198.534 103.022C197.243 102.311 196.145 101.553 195.231 100.751L193.912 102.254C194.952 103.167 196.174 104.006 197.569 104.774L198.534 103.022ZM195.252 100.769C194.415 99.9933 193.851 99.1389 193.529 98.2048L191.639 98.8565C192.078 100.132 192.839 101.259 193.891 102.235L195.252 100.769ZM193.533 98.2169C193.236 97.3156 193.227 96.2533 193.584 94.989L191.659 94.4457C191.219 96.0044 191.185 97.4843 191.634 98.8444L193.533 98.2169ZM193.584 94.989C193.98 93.5857 194.703 92.4784 195.754 91.6302L194.497 90.0743C193.107 91.1972 192.161 92.6667 191.659 94.4457L193.584 94.989ZM195.761 91.624C196.823 90.7494 198.178 90.1775 199.871 89.9434L199.598 87.9623C197.601 88.2382 195.883 88.9326 194.489 90.0804L195.761 91.624ZM199.871 89.9434C201.548 89.7117 203.471 89.8827 205.657 90.4998L206.2 88.575C203.818 87.9027 201.612 87.684 199.598 87.9623L199.871 89.9434Z" fill="black"/>
<defs>
<filter id="filter0_i_213_17" x="81.6257" y="11.3054" width="158.674" height="114.507" filterUnits="userSpaceOnUse" color-interpolation-filters="sRGB">
<feFlood flood-opacity="0" result="BackgroundImageFix"/>
<feBlend mode="normal" in="SourceGraphic" in2="BackgroundImageFix" result="shape"/>
<feColorMatrix in="SourceAlpha" type="matrix" values="0 0 0 0 0 0 0 0 0 0 0 0 0 0 0 0 0 0 127 0" result="hardAlpha"/>
<feOffset dy="4"/>
<feGaussianBlur stdDeviation="2"/>
<feComposite in2="hardAlpha" operator="arithmetic" k2="-1" k3="1"/>
<feColorMatrix type="matrix" values="0 0 0 0 0 0 0 0 0 0 0 0 0 0 0 0 0 0 0.25 0"/>
<feBlend mode="normal" in2="shape" result="effect1_innerShadow_213_17"/>
</filter>
</defs>
</svg>
